<?xml version="1.0" encoding="UTF-8" standalone="no"?>
<svg
  height="200.000000pt"
  id="svg12"
  inkscape:version="1.2.1 (9c6d41e410, 2022-07-14)"
  preserveAspectRatio="xMidYMid meet"
  sodipodi:docname="unknown.svg"
  version="1.0"
  viewBox="0 0 238.000000 200.000000"
  width="238.000000pt"
  xmlns="http://www.w3.org/2000/svg"
  xmlns:inkscape="http://www.inkscape.org/namespaces/inkscape"
  xmlns:sodipodi="http://sodipodi.sourceforge.net/DTD/sodipodi-0.dtd"
>
  <defs
    id="defs16"/>
  <sodipodi:namedview
    bordercolor="#000000"
    borderopacity="0.25"
    id="namedview14"
    inkscape:current-layer="svg12"
    inkscape:cx="208.0446"
    inkscape:cy="151.01553"
    inkscape:deskcolor="#d1d1d1"
    inkscape:document-units="pt"
    inkscape:pagecheckerboard="0"
    inkscape:pageopacity="0.0"
    inkscape:showpageshadow="2"
    inkscape:window-height="1017"
    inkscape:window-maximized="1"
    inkscape:window-width="1920"
    inkscape:window-x="-8"
    inkscape:window-y="-8"
    inkscape:zoom="1.569375"
    pagecolor="#ffffff"
    showgrid="false"/>
  <metadata
    id="metadata2">
    Created by potrace 1.16, written by Peter Selinger 2001-2019
  </metadata>
  <g
    fill="#000000"
    id="g10"
    stroke="none"
    transform="matrix(0.12383215,0,0,-0.13316685,-28.061725,233.52047)">
    <path
      d="m 615,1740 c -154,-25 -271,-113 -342,-258 -37,-75 -38,-78 -38,-192 0,-114 1,-117 38,-192 92,-188 273,-285 475,-257 193,27 350,182 384,378 51,296 -220,569 -517,521 z m 157,-175 c 56,-20 107,-71 118,-119 14,-62 -4,-101 -86,-180 -55,-54 -74,-79 -74,-99 0,-26 -3,-27 -50,-27 h -50 v 38 c 0,52 21,87 90,150 51,45 60,59 60,87 0,74 -112,104 -171,46 -16,-16 -29,-37 -29,-45 0,-12 -10,-16 -42,-16 -62,0 -73,10 -59,52 33,101 171,154 293,113 z"
      id="path4"/>
    <path
      d="m 1190,1292 c 0,-38 -3,-84 -6,-101 l -6,-31 h 481 481 v 23 c 0,41 -43,111 -88,142 l -44,30 -409,3 -409,3 z"
      id="path6"/>
    <path
      d="M 1100,999 C 1049,914 929,829 820,800 795,793 744,785 705,781 l -70,-6 -3,-150 c -3,-195 7,-244 63,-300 33,-34 54,-45 97,-54 38,-8 229,-11 630,-9 l 575,3 48,30 c 32,20 56,45 72,74 23,44 23,49 23,358 v 313 h -507 l -508,-1 z"
      id="path8"/>
  </g>
  <ellipse
    cx="55.972519"
    cy="96.057915"
    id="path2305"
    rx="7.1014848"
    ry="8.2732096"
    style="fill:#ffffff;fill-opacity:1;fill-rule:evenodd;stroke-width:0.96311"/>
</svg>
