<svg fill="none" height="35" viewBox="0 0 34 35" width="34" xmlns="http://www.w3.org/2000/svg">
  <g id="fi-br-angle-small-left">
    <path
      d="M15.5226 18.0017C15.4567 17.9359 15.4043 17.8577 15.3686 17.7717C15.3329 17.6856 15.3145 17.5934 15.3145 17.5002C15.3145 17.407 15.3329 17.3148 15.3686 17.2287C15.4043 17.1426 15.4567 17.0645 15.5226 16.9987L22.0194 10.5033C22.4181 10.1048 22.6421 9.56431 22.6422 9.00068C22.6424 8.43705 22.4186 7.89645 22.0201 7.4978C21.6217 7.09916 21.0812 6.87513 20.5176 6.875C19.9539 6.87487 19.4133 7.09864 19.0147 7.4971L12.5179 13.9939C11.5896 14.9247 11.0684 16.1856 11.0684 17.5002C11.0684 18.8147 11.5896 20.0756 12.5179 21.0064L19.0147 27.5033C19.4133 27.9017 19.9539 28.1255 20.5176 28.1254C21.0812 28.1252 21.6217 27.9012 22.0201 27.5026C22.4186 27.1039 22.6424 26.5633 22.6422 25.9997C22.6421 25.436 22.4181 24.8956 22.0194 24.4971L15.5226 18.0017Z"
      fill="#7D7788"
      id="Vector"/>
  </g>
</svg>
