<svg fill="none" height="35" viewBox="0 0 34 35" width="34" xmlns="http://www.w3.org/2000/svg">
  <g id="fi-br-angle-small-right">
    <path
      d="M22.3128 13.9939L15.816 7.4971C15.4174 7.09864 14.8768 6.87487 14.3132 6.875C13.7495 6.87513 13.209 7.09916 12.8106 7.4978C12.4121 7.89645 12.1883 8.43705 12.1885 9.00068C12.1886 9.56431 12.4126 10.1048 12.8113 10.5033L19.3081 16.9987C19.3741 17.0645 19.4264 17.1426 19.4621 17.2287C19.4978 17.3148 19.5162 17.407 19.5162 17.5002C19.5162 17.5934 19.4978 17.6856 19.4621 17.7717C19.4264 17.8577 19.3741 17.9359 19.3081 18.0017L12.8113 24.4971C12.4126 24.8956 12.1886 25.436 12.1885 25.9997C12.1883 26.5633 12.4121 27.1039 12.8106 27.5026C13.209 27.9012 13.7495 28.1252 14.3132 28.1254C14.8768 28.1255 15.4174 27.9017 15.816 27.5033L22.3128 21.0064C23.2411 20.0756 23.7624 18.8147 23.7624 17.5002C23.7624 16.1856 23.2411 14.9247 22.3128 13.9939Z"
      fill="#7D7788"
      id="Vector"/>
  </g>
</svg>
