<svg width="13" height="21" viewBox="0 0 13 21" fill="none" xmlns="http://www.w3.org/2000/svg">
<path id="Vector" d="M4.24638 10.5008L11.664 3.0816C11.8074 2.94308 11.9218 2.7774 12.0005 2.5942C12.0792 2.41101 12.1206 2.21397 12.1224 2.0146C12.1241 1.81522 12.0861 1.6175 12.0106 1.43297C11.9351 1.24843 11.8236 1.08078 11.6826 0.939796C11.5417 0.798811 11.374 0.687315 11.1895 0.611816C11.0049 0.536317 10.8072 0.498325 10.6078 0.500058C10.4085 0.50179 10.2114 0.543214 10.0282 0.621909C9.84504 0.700603 9.67935 0.814993 9.54084 0.958406L-2.91471e-06 10.5008L9.54084 20.0416C9.67935 20.185 9.84504 20.2994 10.0282 20.3781C10.2114 20.4568 10.4085 20.4982 10.6078 20.4999C10.8072 20.5017 11.0049 20.4637 11.1895 20.3882C11.374 20.3127 11.5417 20.2012 11.6826 20.0602C11.8236 19.9192 11.9351 19.7516 12.0106 19.567C12.0861 19.3825 12.1241 19.1848 12.1224 18.9854C12.1206 18.786 12.0792 18.589 12.0005 18.4058C11.9218 18.2226 11.8074 18.0569 11.664 17.9184L4.24638 10.5008Z" fill="#19181B"/>
</svg>
