<svg width="13" height="21" viewBox="0 0 13 21" fill="none" xmlns="http://www.w3.org/2000/svg">
<path id="Vector" d="M8.7535 10.4992L1.33585 17.9184C1.19243 18.0569 1.07804 18.2226 0.999347 18.4058C0.920653 18.589 0.879231 18.786 0.877498 18.9854C0.875766 19.1848 0.913757 19.3825 0.989256 19.567C1.06476 19.7516 1.17625 19.9192 1.31723 20.0602C1.45822 20.2012 1.62587 20.3127 1.81041 20.3882C1.99494 20.4637 2.19266 20.5017 2.39204 20.4999C2.59141 20.4982 2.78845 20.4568 2.97164 20.3781C3.15484 20.2994 3.32052 20.185 3.45904 20.0416L12.9999 10.4992L3.45904 0.958405C3.32052 0.814992 3.15484 0.700601 2.97164 0.621906C2.78845 0.543211 2.59141 0.501789 2.39204 0.500057C2.19266 0.498324 1.99494 0.536316 1.81041 0.611815C1.62587 0.687314 1.45822 0.798809 1.31723 0.939794C1.17625 1.08078 1.06476 1.24843 0.989256 1.43296C0.913757 1.6175 0.875766 1.81522 0.877498 2.0146C0.879231 2.21397 0.920653 2.411 0.999347 2.5942C1.07804 2.77739 1.19243 2.94308 1.33585 3.0816L8.7535 10.4992Z" fill="#19181B"/>
</svg>
