<svg fill="none" height="16" viewBox="0 0 16 16" width="16" xmlns="http://www.w3.org/2000/svg">
  <g id="Frame">
    <path
      d="M9.73749 8.28153L5.78549 12.2343C5.70908 12.3081 5.64814 12.3964 5.60621 12.494C5.56428 12.5916 5.54221 12.6966 5.54129 12.8028C5.54037 12.909 5.56061 13.0144 5.60083 13.1127C5.64106 13.211 5.70046 13.3003 5.77557 13.3754C5.85069 13.4506 5.94001 13.51 6.03833 13.5502C6.13664 13.5904 6.24199 13.6107 6.34821 13.6097C6.45443 13.6088 6.55941 13.5867 6.65701 13.5448C6.75462 13.5029 6.84289 13.4419 6.91669 13.3655L11.9999 8.28153L6.91669 3.19833C6.84289 3.12192 6.75462 3.06098 6.65701 3.01905C6.55941 2.97712 6.45443 2.95505 6.34821 2.95413C6.24199 2.95321 6.13664 2.97345 6.03833 3.01367C5.94001 3.0539 5.85069 3.1133 5.77557 3.18842C5.70046 3.26353 5.64106 3.35285 5.60083 3.45117C5.56061 3.54949 5.54037 3.65483 5.54129 3.76105C5.54221 3.86728 5.56428 3.97225 5.60621 4.06986C5.64814 4.16746 5.70908 4.25573 5.78549 4.32953L9.73749 8.28153Z"
      fill="#19181B"
      id="Vector"/>
  </g>
</svg>
