<svg width="16" height="17" viewBox="0 0 16 17" fill="none" xmlns="http://www.w3.org/2000/svg">
<g id="Frame">
<path id="Vector" d="M9.73749 8.78165L5.78549 12.7345C5.70908 12.8083 5.64814 12.8965 5.60621 12.9941C5.56428 13.0917 5.54221 13.1967 5.54129 13.3029C5.54037 13.4092 5.56061 13.5145 5.60083 13.6128C5.64106 13.7111 5.70046 13.8005 5.77557 13.8756C5.85069 13.9507 5.94001 14.0101 6.03833 14.0503C6.13664 14.0905 6.24199 14.1108 6.34821 14.1099C6.45443 14.1089 6.55941 14.0869 6.65701 14.0449C6.75462 14.003 6.84289 13.9421 6.91669 13.8657L11.9999 8.78165L6.91669 3.69845C6.84289 3.62205 6.75462 3.5611 6.65701 3.51917C6.55941 3.47725 6.45443 3.45518 6.34821 3.45425C6.24199 3.45333 6.13664 3.47357 6.03833 3.5138C5.94001 3.55402 5.85069 3.61342 5.77557 3.68854C5.70046 3.76365 5.64106 3.85297 5.60083 3.95129C5.56061 4.04961 5.54037 4.15495 5.54129 4.26118C5.54221 4.3674 5.56428 4.47237 5.60621 4.56998C5.64814 4.66758 5.70908 4.75586 5.78549 4.82965L9.73749 8.78165Z" fill="#7D7788"/>
</g>
</svg>
