<svg fill="none" height="19" viewBox="0 0 20 19" width="20" xmlns="http://www.w3.org/2000/svg">
  <path
    d="M15.537 9.454C15.4357 9.89419 15.1879 10.2869 14.8341 10.5678C14.4804 10.8487 14.0417 11.0011 13.59 11H8.36C7.44 11 6.642 10.376 6.42 9.483L5.053 4H16.807L15.537 9.454ZM4.555 2L4.057 0H1C0.734784 0 0.48043 0.105357 0.292893 0.292893C0.105357 0.48043 0 0.734784 0 1C0 1.26522 0.105357 1.51957 0.292893 1.70711C0.48043 1.89464 0.734784 2 1 2H2.494L4.477 9.967C4.69206 10.8338 5.19139 11.6036 5.89525 12.1534C6.5991 12.7032 7.46688 13.0012 8.36 13H13.59C14.4939 13.0031 15.3719 12.6985 16.0798 12.1364C16.7877 11.5743 17.2832 10.7881 17.485 9.907L19.326 2H4.556H4.555ZM8 15C7.73736 15.0001 7.4773 15.0519 7.23467 15.1524C6.99205 15.253 6.7716 15.4004 6.58593 15.5861C6.21095 15.9613 6.00037 16.4701 6.0005 17.0005C6.00057 17.2631 6.05236 17.5232 6.15293 17.7658C6.2535 18.0085 6.40088 18.2289 6.58664 18.4146C6.96181 18.7895 7.47057 19.0001 8.001 19C8.53143 18.9999 9.04009 18.789 9.41507 18.4139C9.79005 18.0387 10.0006 17.5299 10.0005 16.9995C10.0004 16.4691 9.78953 15.9604 9.41436 15.5854C9.03919 15.2105 8.53043 14.9999 8 15ZM14 15C13.4696 15.0001 12.9609 15.211 12.5859 15.5861C12.211 15.9613 12.0004 16.4701 12.0005 17.0005C12.0006 17.5309 12.2115 18.0396 12.5866 18.4146C12.9618 18.7895 13.4706 19.0001 14.001 19C14.2636 18.9999 14.5237 18.9481 14.7663 18.8476C15.009 18.747 15.2294 18.5996 15.4151 18.4139C15.6007 18.2281 15.748 18.0076 15.8484 17.7649C15.9489 17.5222 16.0006 17.2621 16.0005 16.9995C16.0004 16.7369 15.9486 16.4768 15.8481 16.2342C15.7475 15.9915 15.6001 15.7711 15.4144 15.5854C15.2286 15.3998 15.0081 15.2525 14.7654 15.1521C14.5227 15.0516 14.2626 14.9999 14 15Z"
    fill="#7D7788"/>
</svg>
