<svg fill="none" height="16" viewBox="0 0 17 16" width="17" xmlns="http://www.w3.org/2000/svg">
  <path
    d="M13.0838 7.96126C12.9985 8.33195 12.7898 8.66267 12.4919 8.8992C12.194 9.13574 11.8246 9.26407 11.4442 9.26316H7.04C6.26526 9.26316 5.59326 8.73768 5.40632 7.98568L4.25516 3.36842H14.1533L13.0838 7.96126ZM3.83579 1.68421L3.41642 0H0.842105C0.618765 0 0.404572 0.0887215 0.246647 0.246647C0.0887215 0.404572 0 0.618765 0 0.842105C0 1.06545 0.0887215 1.27964 0.246647 1.43756C0.404572 1.59549 0.618765 1.68421 0.842105 1.68421H2.10021L3.7701 8.39326C3.95121 9.12323 4.3717 9.77147 4.96442 10.2344C5.55714 10.6974 6.2879 10.9484 7.04 10.9474H11.4442C12.2054 10.9499 12.9448 10.6935 13.5409 10.2201C14.137 9.74678 14.5543 9.0847 14.7242 8.34274L16.2745 1.68421H3.83663H3.83579ZM6.73684 12.6316C6.51567 12.6316 6.29667 12.6753 6.09235 12.7599C5.88804 12.8446 5.7024 12.9687 5.54605 13.1252C5.23028 13.4411 5.05294 13.8695 5.05305 14.3162C5.05311 14.5374 5.09673 14.7564 5.18142 14.9607C5.26611 15.165 5.39021 15.3507 5.54664 15.507C5.86257 15.8228 6.291 16.0001 6.73768 16C7.18436 15.9999 7.6127 15.8223 7.92848 15.5064C8.24425 15.1905 8.42158 14.762 8.42147 14.3154C8.42136 13.8687 8.24381 13.4403 7.92788 13.1246C7.61195 12.8088 7.18352 12.6315 6.73684 12.6316ZM11.7895 12.6316C11.3428 12.6317 10.9145 12.8092 10.5987 13.1252C10.2829 13.4411 10.1056 13.8695 10.1057 14.3162C10.1058 14.7629 10.2833 15.1912 10.5993 15.507C10.9152 15.8228 11.3436 16.0001 11.7903 16C12.0115 15.9999 12.2305 15.9563 12.4348 15.8716C12.6391 15.7869 12.8248 15.6628 12.9811 15.5064C13.1375 15.35 13.2615 15.1643 13.3461 14.9599C13.4306 14.7556 13.4742 14.5365 13.4741 14.3154C13.474 14.0942 13.4304 13.8752 13.3457 13.6709C13.261 13.4666 13.1369 13.2809 12.9805 13.1246C12.8241 12.9682 12.6384 12.8442 12.434 12.7596C12.2297 12.675 12.0106 12.6315 11.7895 12.6316Z"
    fill="white"/>
</svg>
