<svg fill="none" height="24" viewBox="0 0 24 24" width="24" xmlns="http://www.w3.org/2000/svg">
  <g clip-path="url(#clip0_230_2735)">
    <path
      d="M24.0002 11.2476C23.8555 8.90758 23.0293 6.66108 21.6233 4.78499C20.2174 2.9089 18.2932 1.48526 16.0879 0.689559C13.8826 -0.106139 11.4927 -0.239103 9.21271 0.307059C6.93277 0.853221 4.86249 2.05463 3.2571 3.76318C1.65171 5.47173 0.581393 7.61273 0.178094 9.92222C-0.225205 12.2317 0.0561486 14.6088 0.987468 16.7603C1.91879 18.9118 3.45936 20.7438 5.41926 22.0303C7.37916 23.3169 9.67271 24.0018 12.0172 24.0006H19.0002C20.3258 23.9992 21.5968 23.472 22.5342 22.5346C23.4716 21.5972 23.9988 20.3262 24.0002 19.0006V11.2476ZM22.0002 19.0006C22.0002 19.7962 21.6841 20.5593 21.1215 21.1219C20.5589 21.6845 19.7958 22.0006 19.0002 22.0006H12.0172C10.6061 21.9999 9.211 21.7019 7.92285 21.1259C6.6347 20.5499 5.48243 19.7088 4.54115 18.6576C3.59533 17.6068 2.88508 16.366 2.45805 15.0184C2.03101 13.6707 1.89705 12.2473 2.06515 10.8436C2.33059 8.62951 3.32534 6.56675 4.89259 4.98049C6.45985 3.39422 8.51045 2.37467 10.7212 2.08256C11.1524 2.02851 11.5865 2.00113 12.0212 2.00056C14.3516 1.99421 16.61 2.80847 18.4002 4.30056C19.4457 5.16951 20.3039 6.24172 20.9227 7.45219C21.5415 8.66267 21.9081 9.9862 22.0002 11.3426V19.0006Z"
      fill="#7D7788"/>
    <path
      d="M8 9H12C12.2652 9 12.5196 8.89464 12.7071 8.7071C12.8946 8.51957 13 8.26521 13 8C13 7.73478 12.8946 7.48043 12.7071 7.29289C12.5196 7.10536 12.2652 7 12 7H8C7.73478 7 7.48043 7.10536 7.29289 7.29289C7.10536 7.48043 7 7.73478 7 8C7 8.26521 7.10536 8.51957 7.29289 8.7071C7.48043 8.89464 7.73478 9 8 9Z"
      fill="#7D7788"/>
    <path
      d="M16 11H8C7.73478 11 7.48043 11.1054 7.29289 11.2929C7.10536 11.4804 7 11.7348 7 12C7 12.2652 7.10536 12.5196 7.29289 12.7071C7.48043 12.8947 7.73478 13 8 13H16C16.2652 13 16.5196 12.8947 16.7071 12.7071C16.8946 12.5196 17 12.2652 17 12C17 11.7348 16.8946 11.4804 16.7071 11.2929C16.5196 11.1054 16.2652 11 16 11Z"
      fill="#7D7788"/>
    <path
      d="M16 15H8C7.73478 15 7.48043 15.1054 7.29289 15.2929C7.10536 15.4804 7 15.7348 7 16C7 16.2652 7.10536 16.5196 7.29289 16.7071C7.48043 16.8947 7.73478 17 8 17H16C16.2652 17 16.5196 16.8947 16.7071 16.7071C16.8946 16.5196 17 16.2652 17 16C17 15.7348 16.8946 15.4804 16.7071 15.2929C16.5196 15.1054 16.2652 15 16 15Z"
      fill="#7D7788"/>
  </g>
  <defs>
    <clipPath id="clip0_230_2735">
      <rect fill="white" height="24" width="24"/>
    </clipPath>
  </defs>
</svg>
