<svg fill="none" height="20" viewBox="0 0 20 20" width="20" xmlns="http://www.w3.org/2000/svg">
  <path
    d="M19.7561 0.244965C19.5999 0.0887394 19.388 0.000976563 19.167 0.000976562C18.946 0.000976563 18.7341 0.0887394 18.5778 0.244965L10.0003 8.82247L1.42281 0.244965C1.26654 0.0887394 1.05461 0.000976563 0.833644 0.000976562C0.612674 0.000976563 0.40075 0.0887394 0.244477 0.244965C0.0882511 0.401238 0.000488281 0.613162 0.000488281 0.834132C0.000488281 1.0551 0.0882511 1.26703 0.244477 1.4233L8.82198 10.0008L0.244477 18.5783C0.0882511 18.7346 0.000488281 18.9465 0.000488281 19.1675C0.000488281 19.3884 0.0882511 19.6004 0.244477 19.7566C0.40075 19.9129 0.612674 20.0006 0.833644 20.0006C1.05461 20.0006 1.26654 19.9129 1.42281 19.7566L10.0003 11.1791L18.5778 19.7566C18.7341 19.9129 18.946 20.0006 19.167 20.0006C19.388 20.0006 19.5999 19.9129 19.7561 19.7566C19.9124 19.6004 20.0001 19.3884 20.0001 19.1675C20.0001 18.9465 19.9124 18.7346 19.7561 18.5783L11.1786 10.0008L19.7561 1.4233C19.9124 1.26703 20.0001 1.0551 20.0001 0.834132C20.0001 0.613162 19.9124 0.401238 19.7561 0.244965Z"
    fill="#B5AFB6"/>
</svg>
