<svg fill="none" height="20" viewBox="0 0 20 20" width="20" xmlns="http://www.w3.org/2000/svg">
  <g clip-path="url(#clip0_227_39616)" id="fi-rr-menu-dots">
    <path
      d="M1.66667 11.6673C2.58714 11.6673 3.33333 10.9211 3.33333 10.0006C3.33333 9.08018 2.58714 8.33398 1.66667 8.33398C0.746192 8.33398 0 9.08018 0 10.0006C0 10.9211 0.746192 11.6673 1.66667 11.6673Z"
      fill="#7D7788"
      id="Vector"/>
    <path
      d="M9.99967 11.6673C10.9201 11.6673 11.6663 10.9211 11.6663 10.0006C11.6663 9.08018 10.9201 8.33398 9.99967 8.33398C9.0792 8.33398 8.33301 9.08018 8.33301 10.0006C8.33301 10.9211 9.0792 11.6673 9.99967 11.6673Z"
      fill="#7D7788"
      id="Vector_2"/>
    <path
      d="M18.3337 11.6673C19.2541 11.6673 20.0003 10.9211 20.0003 10.0006C20.0003 9.08018 19.2541 8.33398 18.3337 8.33398C17.4132 8.33398 16.667 9.08018 16.667 10.0006C16.667 10.9211 17.4132 11.6673 18.3337 11.6673Z"
      fill="#7D7788"
      id="Vector_3"/>
  </g>
  <defs>
    <clipPath id="clip0_227_39616">
      <rect fill="white" height="20" width="20"/>
    </clipPath>
  </defs>
</svg>
