<svg fill="none" height="20" viewBox="0 0 20 20" width="20" xmlns="http://www.w3.org/2000/svg">
  <path
    d="M19.0275 7.64318L15.7944 4.41068C15.6372 4.25889 15.4267 4.17489 15.2081 4.17679C14.9896 4.17869 14.7805 4.26633 14.626 4.42084C14.4715 4.57534 14.3838 4.78435 14.3819 5.00285C14.38 5.22135 14.464 5.43185 14.6159 5.58902L17.8489 8.82152C17.945 8.91946 18.0289 9.02857 18.099 9.14652C18.0865 9.14652 18.0765 9.13985 18.064 9.13985L4.99168 9.16652C4.77063 9.16652 4.55863 9.25432 4.40232 9.4106C4.24602 9.56688 4.1582 9.77884 4.1582 9.99985C4.1582 10.2209 4.24602 10.4328 4.40232 10.5891C4.55863 10.7454 4.77063 10.8332 4.99168 10.8332L18.059 10.8065C18.0823 10.8065 18.1015 10.7949 18.124 10.7932C18.05 10.9342 17.9563 11.0638 17.8456 11.1782L14.6125 14.4107C14.5329 14.4876 14.4694 14.5795 14.4257 14.6812C14.3821 14.7829 14.3591 14.8922 14.3581 15.0029C14.3571 15.1135 14.3782 15.2232 14.4201 15.3256C14.462 15.4281 14.5239 15.5211 14.6022 15.5993C14.6805 15.6776 14.7735 15.7395 14.8759 15.7814C14.9784 15.8233 15.0881 15.8444 15.1988 15.8434C15.3095 15.8424 15.4188 15.8194 15.5205 15.7758C15.6222 15.7321 15.7142 15.6686 15.7911 15.589L19.0241 12.3565C19.6491 11.7314 20.0003 10.8837 20.0003 9.99985C20.0003 9.11597 19.6491 8.26828 19.0241 7.64318H19.0275Z"
    fill="#19181B"/>
  <path
    d="M5.83435 18.3333H4.16739C3.50424 18.3333 2.86824 18.0699 2.39932 17.6011C1.9304 17.1323 1.66696 16.4964 1.66696 15.8333V4.16667C1.66696 3.50363 1.9304 2.86774 2.39932 2.3989C2.86824 1.93006 3.50424 1.66667 4.16739 1.66667H5.83435C6.0554 1.66667 6.2674 1.57887 6.42371 1.42259C6.58002 1.26631 6.66783 1.05435 6.66783 0.833333C6.66783 0.61232 6.58002 0.400358 6.42371 0.244078C6.2674 0.0877974 6.0554 0 5.83435 0L4.16739 0C3.06254 0.00132321 2.00331 0.440735 1.22206 1.22185C0.440812 2.00297 0.00132345 3.062 0 4.16667L0 15.8333C0.00132345 16.938 0.440812 17.997 1.22206 18.7782C2.00331 19.5593 3.06254 19.9987 4.16739 20H5.83435C6.0554 20 6.2674 19.9122 6.42371 19.7559C6.58002 19.5996 6.66783 19.3877 6.66783 19.1667C6.66783 18.9457 6.58002 18.7337 6.42371 18.5774C6.2674 18.4211 6.0554 18.3333 5.83435 18.3333Z"
    fill="#19181B"/>
</svg>
