<svg fill="none" height="20" viewBox="0 0 20 20" width="20" xmlns="http://www.w3.org/2000/svg">
  <mask height="20" id="mask0_230_4157" maskUnits="userSpaceOnUse" style="mask-type:luminance" width="20" x="0" y="0">
    <path d="M0 0H20V20H0V0Z" fill="white"/>
  </mask>
  <g mask="url(#mask0_230_4157)">
    <path
      d="M20 10C20 4.477 15.523 0 10 0C4.477 0 0 4.477 0 10C0 14.991 3.657 19.128 8.438 19.878V12.891H5.898V10H8.438V7.797C8.438 5.291 9.93 3.907 12.215 3.907C13.308 3.907 14.453 4.102 14.453 4.102V6.562H13.193C11.95 6.562 11.563 7.333 11.563 8.125V10H14.336L13.893 12.89H11.563V19.878C16.343 19.128 20 14.991 20 10Z"
      fill="#1877F2"/>
    <path
      d="M13.8929 12.8903L14.3359 10.0002H11.5629V8.12525C11.5629 7.33525 11.9499 6.56225 13.1929 6.56225H14.4529V4.10225C14.4529 4.10225 13.3089 3.90625 12.2149 3.90625C9.93095 3.90625 8.43795 5.29125 8.43795 7.79625V10.0002H5.89795V12.8903H8.43795V19.8783C9.47295 20.0413 10.5279 20.0413 11.5619 19.8783V12.8912H13.8919L13.8929 12.8903Z"
      fill="white"/>
  </g>
</svg>
