<svg fill="none" height="20" viewBox="0 0 20 20" width="20" xmlns="http://www.w3.org/2000/svg">
  <path
    d="M9.99977 6.66699C9.26702 6.66699 8.55073 6.86249 7.94147 7.22876C7.33221 7.59503 6.85735 8.11563 6.57694 8.72471C6.29653 9.3338 6.22316 10.004 6.36611 10.6506C6.50906 11.2972 6.86192 11.8912 7.38005 12.3573C7.89818 12.8235 8.55832 13.141 9.27699 13.2696C9.99566 13.3982 10.7406 13.3322 11.4176 13.0799C12.0945 12.8276 12.6731 12.4004 13.0802 11.8522C13.4873 11.3041 13.7046 10.6596 13.7046 10.0003C13.7046 9.11627 13.3143 8.26842 12.6195 7.6433C11.9247 7.01818 10.9824 6.66699 9.99977 6.66699ZM9.99977 11.667C9.63339 11.667 9.27525 11.5692 8.97062 11.3861C8.66599 11.203 8.42856 10.9427 8.28835 10.6381C8.14815 10.3336 8.11146 9.99848 8.18294 9.67518C8.25442 9.35187 8.43084 9.0549 8.68991 8.82182C8.94897 8.58873 9.27904 8.42999 9.63838 8.36568C9.99771 8.30137 10.3702 8.33438 10.7087 8.46053C11.0471 8.58667 11.3365 8.80029 11.54 9.07438C11.7435 9.34846 11.8522 9.67069 11.8522 10.0003C11.8522 10.4424 11.657 10.8663 11.3096 11.1788C10.9622 11.4914 10.4911 11.667 9.99977 11.667Z"
    fill="#19181B"/>
  <path
    d="M18.6082 11.5833L18.197 11.37C18.3821 10.4637 18.3821 9.53463 18.197 8.62833L18.6082 8.415C18.9245 8.25085 19.2017 8.03226 19.424 7.77172C19.6464 7.51118 19.8095 7.21378 19.9041 6.89652C19.9987 6.57925 20.0229 6.24832 19.9754 5.92263C19.9279 5.59694 19.8095 5.28287 19.627 4.99833C19.4446 4.7138 19.2016 4.46439 18.9121 4.26434C18.6225 4.06428 18.2919 3.91751 17.9393 3.83239C17.5867 3.74727 17.2189 3.72547 16.8569 3.76824C16.4949 3.81101 16.1458 3.91751 15.8296 4.08167L15.4174 4.29583C14.639 3.69743 13.7444 3.23354 12.7786 2.9275V2.5C12.7786 1.83696 12.4859 1.20107 11.9648 0.732233C11.4437 0.263392 10.7369 0 10 0C9.26306 0 8.55631 0.263392 8.03521 0.732233C7.51412 1.20107 7.22137 1.83696 7.22137 2.5V2.9275C6.25569 3.23464 5.36139 3.69967 4.58352 4.29917L4.1695 4.08333C3.53082 3.75181 2.77192 3.66214 2.05976 3.83405C1.3476 4.00596 0.740505 4.42536 0.372035 5C0.00356507 5.57464 -0.0960982 6.25743 0.09497 6.89818C0.286038 7.53893 0.752186 8.08515 1.39087 8.41667L1.80211 8.63C1.61696 9.5363 1.61696 10.4654 1.80211 11.3717L1.39087 11.585C0.752186 11.9165 0.286038 12.4627 0.09497 13.1035C-0.0960982 13.7442 0.00356507 14.427 0.372035 15.0017C0.740505 15.5763 1.3476 15.9957 2.05976 16.1676C2.77192 16.3395 3.53082 16.2499 4.1695 15.9183L4.58167 15.7042C5.36039 16.3027 6.25531 16.7666 7.22137 17.0725V17.5C7.22137 18.163 7.51412 18.7989 8.03521 19.2678C8.55631 19.7366 9.26306 20 10 20C10.7369 20 11.4437 19.7366 11.9648 19.2678C12.4859 18.7989 12.7786 18.163 12.7786 17.5V17.0725C13.7443 16.7654 14.6386 16.3003 15.4165 15.7008L15.8305 15.9158C16.4692 16.2474 17.2281 16.337 17.9402 16.1651C18.6524 15.9932 19.2595 15.5738 19.628 14.9992C19.9964 14.4245 20.0961 13.7417 19.905 13.101C19.714 12.4602 19.2478 11.914 18.6091 11.5825L18.6082 11.5833ZM16.2482 8.43667C16.5619 9.45922 16.5619 10.5391 16.2482 11.5617C16.1935 11.7396 16.2059 11.9289 16.2837 12.0998C16.3615 12.2707 16.5002 12.4135 16.678 12.5058L17.682 13.0275C17.8949 13.138 18.0502 13.3201 18.1139 13.5336C18.1775 13.7472 18.1443 13.9747 18.0215 14.1663C17.8986 14.3578 17.6963 14.4975 17.4589 14.5548C17.2216 14.6121 16.9686 14.5822 16.7558 14.4717L15.7499 13.9483C15.572 13.8556 15.3648 13.8188 15.1611 13.8437C14.9573 13.8686 14.7686 13.9538 14.6246 14.0858C13.8002 14.8431 12.7616 15.3833 11.6209 15.6483C11.4218 15.6944 11.2454 15.7987 11.1194 15.9449C10.9935 16.0911 10.9252 16.2709 10.9253 16.4558V17.5C10.9253 17.721 10.8277 17.933 10.654 18.0893C10.4803 18.2455 10.2447 18.3333 9.99907 18.3333C9.75343 18.3333 9.51784 18.2455 9.34414 18.0893C9.17045 17.933 9.07286 17.721 9.07286 17.5V16.4567C9.07297 16.2717 9.00467 16.092 8.87873 15.9458C8.7528 15.7996 8.57638 15.6952 8.37728 15.6492C7.23651 15.3831 6.19821 14.8416 5.3745 14.0833C5.2305 13.9513 5.04175 13.8661 4.838 13.8412C4.63425 13.8163 4.42709 13.8531 4.24916 13.9458L3.24514 14.4683C3.13977 14.5239 3.02321 14.5602 2.90219 14.5751C2.78117 14.59 2.65807 14.5832 2.53997 14.5551C2.42188 14.527 2.31113 14.4782 2.2141 14.4114C2.11707 14.3447 2.03568 14.2613 1.9746 14.1661C1.91352 14.0709 1.87398 13.9658 1.85823 13.8568C1.84249 13.7479 1.85086 13.6372 1.88286 13.5311C1.91487 13.425 1.96987 13.3257 2.04471 13.2389C2.11955 13.152 2.21275 13.0793 2.31893 13.025L3.32294 12.5033C3.50073 12.411 3.63941 12.2682 3.71719 12.0973C3.79498 11.9264 3.80747 11.7371 3.75271 11.5592C3.43905 10.5366 3.43905 9.45672 3.75271 8.43417C3.80649 8.25657 3.7934 8.06795 3.71549 7.89774C3.63757 7.72754 3.49922 7.58534 3.32202 7.49333L2.318 6.97167C2.10515 6.86116 1.94981 6.6791 1.88615 6.46555C1.82249 6.25199 1.85573 6.02443 1.97855 5.83292C2.10137 5.64141 2.30372 5.50164 2.54108 5.44437C2.77844 5.38709 3.03136 5.41699 3.24422 5.5275L4.25008 6.05083C4.42752 6.14376 4.63426 6.18101 4.83779 6.15672C5.04132 6.13244 5.23011 6.048 5.3745 5.91667C6.19891 5.15945 7.23751 4.61918 8.37821 4.35417C8.57793 4.30797 8.7548 4.20313 8.8808 4.05625C9.0068 3.90938 9.07472 3.72887 9.07379 3.54333V2.5C9.07379 2.27899 9.17137 2.06702 9.34507 1.91074C9.51877 1.75446 9.75436 1.66667 10 1.66667C10.2456 1.66667 10.4812 1.75446 10.6549 1.91074C10.8286 2.06702 10.9262 2.27899 10.9262 2.5V3.54333C10.9261 3.7283 10.9944 3.90804 11.1203 4.05423C11.2463 4.20043 11.4227 4.30478 11.6218 4.35083C12.7629 4.61679 13.8015 5.15824 14.6255 5.91667C14.7695 6.04872 14.9583 6.13391 15.162 6.15881C15.3658 6.1837 15.5729 6.14689 15.7508 6.05417L16.7549 5.53167C16.8602 5.47609 16.9768 5.43981 17.0978 5.42492C17.2188 5.41003 17.3419 5.41683 17.46 5.44492C17.5781 5.47301 17.6889 5.52184 17.7859 5.5886C17.8829 5.65535 17.9643 5.73872 18.0254 5.83389C18.0865 5.92907 18.126 6.03418 18.1418 6.14316C18.1575 6.25214 18.1491 6.36285 18.1171 6.46891C18.0851 6.57497 18.0301 6.67429 17.9553 6.76115C17.8805 6.848 17.7873 6.92068 17.6811 6.975L16.6771 7.49667C16.5002 7.58892 16.3622 7.73123 16.2847 7.90141C16.2071 8.07159 16.1943 8.26009 16.2482 8.4375V8.43667Z"
    fill="#19181B"/>
</svg>
