<svg fill="none" height="16" viewBox="0 0 17 16" width="17" xmlns="http://www.w3.org/2000/svg">
  <path
    d="M8.33326 0C6.75101 0 5.20429 0.469192 3.88869 1.34824C2.5731 2.22729 1.54772 3.47672 0.942219 4.93853C0.336718 6.40034 0.178292 8.00887 0.486973 9.56072C0.795655 11.1126 1.55758 12.538 2.6764 13.6569C3.79522 14.7757 5.22069 15.5376 6.77253 15.8463C8.32438 16.155 9.93291 15.9965 11.3947 15.391C12.8565 14.7855 14.106 13.7602 14.985 12.4446C15.8641 11.129 16.3333 9.58225 16.3333 8C16.331 5.87897 15.4874 3.84547 13.9876 2.34568C12.4878 0.845886 10.4543 0.00229405 8.33326 0V0ZM14.0979 4.66667H11.9506C11.4699 3.55266 10.837 2.51072 10.0699 1.57067C11.7676 2.03262 13.2148 3.14498 14.0979 4.66667ZM11.3333 8C11.3278 8.67876 11.2208 9.35288 11.0159 10H5.65059C5.44569 9.35288 5.33873 8.67876 5.33326 8C5.33873 7.32124 5.44569 6.64712 5.65059 6H11.0159C11.2208 6.64712 11.3278 7.32124 11.3333 8ZM6.18526 11.3333H10.4813C9.91541 12.4505 9.19203 13.4806 8.33326 14.392C7.47417 13.4808 6.75075 12.4507 6.18526 11.3333ZM6.18526 4.66667C6.7511 3.54952 7.47449 2.51944 8.33326 1.608C9.19234 2.51918 9.91576 3.54931 10.4813 4.66667H6.18526ZM6.59992 1.57067C5.8317 2.51052 5.19765 3.55247 4.71592 4.66667H2.56859C3.45249 3.14429 4.90103 2.03184 6.59992 1.57067ZM1.97392 6H4.26659C4.09376 6.65276 4.00416 7.32476 3.99992 8C4.00416 8.67524 4.09376 9.34724 4.26659 10H1.97392C1.56415 8.69815 1.56415 7.30185 1.97392 6ZM2.56859 11.3333H4.71592C5.19765 12.4475 5.8317 13.4895 6.59992 14.4293C4.90103 13.9682 3.45249 12.8557 2.56859 11.3333ZM10.0699 14.4293C10.837 13.4893 11.4699 12.4473 11.9506 11.3333H14.0979C13.2148 12.855 11.7676 13.9674 10.0699 14.4293ZM14.6926 10H12.3999C12.5728 9.34724 12.6624 8.67524 12.6666 8C12.6624 7.32476 12.5728 6.65276 12.3999 6H14.6913C15.101 7.30185 15.101 8.69815 14.6913 10H14.6926Z"
    fill="#7D7788"/>
</svg>
