<svg fill="none" height="20" viewBox="0 0 20 20" width="20" xmlns="http://www.w3.org/2000/svg">
  <path clip-rule="evenodd"
        d="M8.48998 0.902354C5.76998 -0.965411 2.29152 0.131249 0.719272 3.60234C-1.50883 8.52008 1.43347 14.8389 9.6317 19.78L9.99987 20L10.366 19.7789C18.5653 14.84 21.5096 8.52008 19.2805 3.60123C17.7082 0.131249 14.2297 -0.965411 11.5097 0.901243C10.9384 1.29832 10.4286 1.79427 9.99987 2.37012C9.57074 1.79455 9.0616 1.29897 8.48998 0.902354ZM9.99886 17.46C13.5548 15.2123 15.8221 12.7901 16.995 10.5645C18.2021 8.27342 18.2373 6.26454 17.4809 4.59566C16.821 3.14012 15.7507 2.3979 14.7156 2.25123C13.6936 2.10568 12.5126 2.50901 11.546 3.79234L9.99886 5.84454L8.45277 3.79345C7.48507 2.50901 6.30413 2.10679 5.28312 2.25235C4.24702 2.39901 3.17773 3.14012 2.51685 4.59677M9.99886 17.46C6.44294 15.2123 4.17661 12.7912 3.00371 10.5656C1.79661 8.27453 1.76241 6.26454 2.51685 4.59677"
        fill="#19181B"
        fill-rule="evenodd"/>
</svg>
