<svg fill="none" height="18" viewBox="0 0 21 18" width="21" xmlns="http://www.w3.org/2000/svg">
  <path clip-rule="evenodd"
        d="M8.94004 0.812124C6.23604 -0.868876 2.77804 0.118124 1.21504 3.24212C-0.999959 7.66812 1.92504 13.3551 10.075 17.8021L10.441 18.0001L10.805 17.8011C18.956 13.3561 21.883 7.66812 19.667 3.24112C18.104 0.118125 14.646 -0.868875 11.942 0.811125C11.3741 1.16849 10.8673 1.61486 10.441 2.13312C10.0144 1.61511 9.5083 1.16908 8.94004 0.812124ZM10.44 15.7141C13.975 13.6911 16.229 11.5111 17.395 9.50812C18.595 7.44612 18.63 5.63812 17.878 4.13612C17.222 2.82612 16.158 2.15812 15.129 2.02612C14.113 1.89512 12.939 2.25812 11.978 3.41312L10.44 5.26012L8.90304 3.41412C7.94104 2.25812 6.76704 1.89612 5.75204 2.02712C4.72204 2.15912 3.65904 2.82612 3.00204 4.13712M10.44 15.7141C6.90504 13.6911 4.65204 11.5121 3.48604 9.50912C2.28604 7.44712 2.25204 5.63812 3.00204 4.13712"
        fill="#7D7788"
        fill-rule="evenodd"/>
</svg>
