<svg fill="none" height="20" viewBox="0 0 20 20" width="20" xmlns="http://www.w3.org/2000/svg">
  <path clip-rule="evenodd"
        d="M1.679 1.679C2.17833 1.16981 2.78271 0.775646 3.45 0.524C4.084 0.276 4.812 0.106 5.881 0.0610001C6.947 0.0120001 7.29 0 10.004 0C12.72 0 13.061 0.0120001 14.126 0.0610001C15.191 0.11 15.919 0.276 16.553 0.524C17.2207 0.775488 17.8254 1.16966 18.325 1.679C18.8314 2.1785 19.2237 2.78162 19.475 3.447C19.719 4.081 19.89 4.809 19.939 5.874C19.988 6.939 20 7.28 20 9.996C20 12.711 19.988 13.053 19.939 14.118C19.89 15.183 19.724 15.911 19.476 16.545C19.2245 17.2127 18.8303 17.8174 18.321 18.317C17.8213 18.826 17.2166 19.2198 16.549 19.471C15.915 19.715 15.187 19.886 14.122 19.935C13.057 19.984 12.715 19.995 10 19.995C7.285 19.995 6.943 19.984 5.878 19.935C4.813 19.886 4.085 19.72 3.451 19.472C2.78333 19.2205 2.1786 18.8263 1.679 18.317C1.16966 17.8174 0.775488 17.2127 0.524 16.545C0.28 15.911 0.11 15.183 0.0610001 14.118C0.0120001 13.053 0 12.71 0 9.996C0 7.28 0.0120001 6.939 0.0610001 5.874C0.11 4.809 0.276 4.081 0.524 3.447C0.77605 2.78084 1.17058 2.17778 1.68 1.68L1.679 1.679ZM9.886 15.085C11.2659 15.085 12.5893 14.5368 13.5651 13.5611C14.5408 12.5853 15.089 11.2619 15.089 9.882C15.089 8.50208 14.5408 7.17868 13.5651 6.20292C12.5893 5.22717 11.2659 4.679 9.886 4.679C8.50608 4.679 7.18268 5.22717 6.20692 6.20292C5.23117 7.17868 4.683 8.50208 4.683 9.882C4.683 11.2619 5.23117 12.5853 6.20692 13.5611C7.18268 14.5368 8.50608 15.085 9.886 15.085ZM9.886 13.005C10.2961 13.005 10.7021 12.9242 11.0809 12.7673C11.4598 12.6104 11.804 12.3804 12.0939 12.0904C12.3839 11.8005 12.6139 11.4563 12.7708 11.0774C12.9277 10.6986 13.0085 10.2926 13.0085 9.8825C13.0085 9.47245 12.9277 9.06641 12.7708 8.68757C12.6139 8.30873 12.3839 7.96451 12.0939 7.67456C11.804 7.38461 11.4598 7.15461 11.0809 6.99769C10.7021 6.84077 10.2961 6.76 9.886 6.76C9.05799 6.76 8.2639 7.08892 7.67841 7.67441C7.09292 8.2599 6.764 9.05399 6.764 9.882C6.764 10.71 7.09292 11.5041 7.67841 12.0896C8.2639 12.6751 9.05799 13.004 9.886 13.004V13.005ZM15.09 5.72C15.3661 5.72 15.6309 5.61032 15.8261 5.4151C16.0213 5.21987 16.131 4.95509 16.131 4.679C16.131 4.40291 16.0213 4.13813 15.8261 3.9429C15.6309 3.74768 15.3661 3.638 15.09 3.638C14.8139 3.638 14.5491 3.74768 14.3539 3.9429C14.1587 4.13813 14.049 4.40291 14.049 4.679C14.049 4.95509 14.1587 5.21987 14.3539 5.4151C14.5491 5.61032 14.8139 5.72 15.09 5.72Z"
        fill="url(#paint0_radial_230_4165)"
        fill-rule="evenodd"/>
  <defs>
    <radialGradient cx="0" cy="0" gradientTransform="translate(1.925 16.6) rotate(-3.00009) scale(28.9152 24.5776)"
                    gradientUnits="userSpaceOnUse" id="paint0_radial_230_4165"
                    r="1">
      <stop stop-color="#FED576"/>
      <stop offset="0.263" stop-color="#F47133"/>
      <stop offset="0.609" stop-color="#BC3081"/>
      <stop offset="1" stop-color="#4C63D2"/>
    </radialGradient>
  </defs>
</svg>
