<svg fill="none" height="37" viewBox="0 0 138 37" width="138" xmlns="http://www.w3.org/2000/svg">
  <g clip-path="url(#clip0_564_9048)" id="logo sound 1">
    <path clip-rule="evenodd" d="M61.5132 18.4999C61.5147 20.0476 61.3174 21.5893 60.926 23.0889L60.9164 23.1246C60.5181 24.6363 59.9244 26.0923 59.1499 27.4575C59.0943 27.5552 59.0388 27.653 58.9817 27.7492C58.352 28.8129 57.6156 29.8128 56.7834 30.734C56.5908 30.9481 56.3924 31.158 56.1882 31.3638C55.8422 31.7165 55.4808 32.0532 55.1041 32.3738C51.65 35.3591 47.1983 37.0069 42.5875 37.0069C37.9768 37.0069 33.5251 35.3591 30.0709 32.3738C29.6943 32.0532 29.3329 31.7165 28.9869 31.3638C28.7827 31.157 28.5843 30.947 28.3917 30.734V36.9999H23.6587V27.7492C24.4559 27.7499 25.25 27.6519 26.022 27.4575C27.5745 27.0676 28.9994 26.2965 30.1614 25.2173C30.6769 26.126 31.295 26.9752 32.0041 27.7492C32.353 28.1316 32.724 28.4941 33.1152 28.8351C34.3343 29.9034 35.7338 30.7569 37.2514 31.3576C37.4466 31.4352 37.645 31.5128 37.8466 31.5779C40.9089 32.6308 44.2471 32.6308 47.3094 31.5779C47.511 31.5081 47.7094 31.4352 47.9046 31.3576C49.4254 30.7594 50.8286 29.908 52.052 28.8413C52.4428 28.5 52.8138 28.1374 53.163 27.7554C55.6713 25.0122 56.9631 21.4081 56.7548 17.7346C56.5465 14.0611 54.855 10.6187 52.052 8.16321V2.47437C53.1398 3.09033 54.1623 3.81061 55.1041 4.62455C55.4798 4.94724 55.8411 5.2844 56.1882 5.63604C56.3924 5.84289 56.5908 6.04974 56.7834 6.25659C57.6153 7.17806 58.3516 8.17789 58.9817 9.24141C59.0388 9.33759 59.0943 9.43533 59.1499 9.53307C59.9242 10.8984 60.5178 12.3544 60.9164 13.866L60.926 13.9033C61.3181 15.4053 61.5154 16.9497 61.5132 18.4999Z" fill="#A59598"
          fill-rule="evenodd"
          id="Vector"/>
    <path clip-rule="evenodd" d="M47.3174 0.577027V18.4999C47.3189 19.3904 47.0573 20.2624 46.5641 21.0111C46.0709 21.7599 45.367 22.3535 44.537 22.7207C43.7071 23.0879 42.7862 23.2131 41.8852 23.0812C40.9842 22.9493 40.1413 22.566 39.4578 21.9772C38.7743 21.3885 38.2792 20.6194 38.032 19.7623C37.7848 18.9052 37.7961 17.9966 38.0644 17.1456C38.3327 16.2946 38.8467 15.5374 39.5446 14.965C40.2425 14.3926 41.0947 14.0293 41.9987 13.9187C42.1934 13.8937 42.3896 13.8813 42.5859 13.8815V4.62453C40.9744 4.62328 39.3744 4.89031 37.8545 5.41418C37.653 5.48399 37.4546 5.5569 37.2593 5.63602C35.7418 6.23623 34.3423 7.0892 33.1231 8.15699C32.7323 8.49836 32.3613 8.86092 32.0121 9.24294C31.3029 10.0169 30.6848 10.8662 30.1693 11.7748C29.0041 13.8309 28.394 16.1432 28.3965 18.4937C28.399 19.3842 28.1385 20.2564 27.6463 21.0057C27.154 21.755 26.4509 22.3494 25.6214 22.7176C24.7919 23.0858 23.8713 23.2121 22.9701 23.0813C22.069 22.9505 21.2256 22.5682 20.5414 21.9803C19.8571 21.3924 19.361 20.624 19.1127 19.7672C18.8645 18.9105 18.8745 18.0019 19.1417 17.1506C19.4088 16.2993 19.9218 15.5414 20.6189 14.9682C21.316 14.3949 22.1676 14.0305 23.0714 13.9187C23.2661 13.8937 23.4623 13.8813 23.6587 13.8815V4.62453C22.0471 4.62328 20.4471 4.89031 18.9273 5.41418C18.7257 5.48399 18.5273 5.5569 18.3321 5.63602C16.8146 6.23623 15.4151 7.0892 14.1958 8.15699C13.805 8.49836 13.4341 8.86092 13.0848 9.24294C12.3757 10.0169 11.7576 10.8662 11.2421 11.7748C10.0768 13.8309 9.46669 16.1432 9.46919 18.4937C9.46887 19.4083 9.19111 20.3023 8.67103 21.0626C8.15094 21.8229 7.41189 22.4154 6.5473 22.7652C5.68272 23.115 4.73144 23.2063 3.81374 23.0277C2.89604 22.8491 2.05313 22.4085 1.39159 21.7617C0.730048 21.1149 0.279581 20.2909 0.0971466 19.3938C-0.0852876 18.4968 0.00850289 17.567 0.366659 16.722C0.724816 15.8771 1.33126 15.1549 2.1093 14.6468C2.88734 14.1387 3.80205 13.8676 4.73777 13.8676C4.93415 13.8673 5.13033 13.8798 5.32503 13.9048L5.33455 13.8676C5.73322 12.3559 6.32682 10.8999 7.1011 9.5346C7.15665 9.43686 7.2122 9.33912 7.26934 9.24294C7.89935 8.17942 8.63571 7.17959 9.4676 6.25812C9.65912 6.04403 9.85752 5.83718 10.0628 5.63757C10.4088 5.28593 10.7702 4.94877 11.1468 4.62608C13.4654 2.62809 16.2487 1.21464 19.2541 0.508895C22.2596 -0.196846 25.396 -0.173456 28.3901 0.577027V6.26432C28.5827 6.05024 28.7811 5.84339 28.9853 5.64378C29.3313 5.29214 29.6927 4.95497 30.0694 4.63229C32.3878 2.63248 35.1716 1.21745 38.178 0.510603C41.1844 -0.196243 44.3221 -0.173439 47.3174 0.577027Z" fill="#777484"
          fill-rule="evenodd"
          id="Vector_2"/>
    <path d="M69.8048 17.4621C68.6885 17.1115 67.7928 16.6564 67.1177 16.0969L68.3049 13.2517C68.9966 13.7911 69.7777 14.2108 70.6143 14.4928C71.4721 14.7979 72.3774 14.9553 73.2903 14.9582C74.2838 14.9582 75.0182 14.7984 75.4933 14.4788C75.7141 14.3451 75.8957 14.1578 76.0206 13.9352C76.1455 13.7125 76.2093 13.4621 76.2059 13.2082C76.2104 13.0268 76.175 12.8465 76.1022 12.6795C76.0294 12.5125 75.9208 12.3627 75.7837 12.2402C75.4708 11.9638 75.1036 11.7527 74.7044 11.6196C74.2664 11.4645 73.6728 11.2933 72.9236 11.1061C71.9627 10.8711 71.0184 10.5752 70.0968 10.2203C69.3505 9.9162 68.6992 9.42559 68.2081 8.79772C67.679 8.14511 67.4145 7.27428 67.4145 6.18522C67.4033 5.27835 67.65 4.38626 68.1271 3.60841C68.6416 2.80335 69.389 2.16569 70.2746 1.77625C71.2269 1.32636 72.3961 1.10089 73.7823 1.09986C74.738 1.09914 75.6895 1.22491 76.6107 1.47373C77.4748 1.6952 78.2943 2.05818 79.0343 2.54728L77.955 5.41575C76.5583 4.56146 75.1626 4.1338 73.768 4.13277C72.7882 4.13277 72.0649 4.30394 71.5983 4.64627C71.3751 4.79846 71.194 5.00243 71.0712 5.23989C70.9485 5.47735 70.888 5.74087 70.8952 6.00682C70.8897 6.26869 70.9636 6.5263 71.1077 6.74717C71.2517 6.96804 71.4594 7.14227 71.7047 7.24791C72.2443 7.51991 73.0681 7.7883 74.1759 8.05306C75.1373 8.28838 76.082 8.58428 77.0043 8.93889C77.7456 9.23897 78.3958 9.71966 78.893 10.3351C79.4221 10.9722 79.6866 11.8353 79.6866 12.9243C79.6957 13.8251 79.4449 14.7101 78.9629 15.4779C78.4397 16.2829 77.6857 16.9196 76.7948 17.3085C75.8298 17.7605 74.6568 17.9859 73.276 17.9849C72.0981 17.9886 70.9269 17.8122 69.8048 17.4621Z"
          fill="#777484"
          id="Vector_3"/>
    <path d="M84.0718 17.065C83.1084 16.5221 82.3199 15.7262 81.7958 14.7675C81.2368 13.7419 80.9543 12.5939 80.9752 11.432C80.9545 10.2707 81.237 9.12327 81.7958 8.09815C82.3204 7.1398 83.1087 6.34397 84.0718 5.80059C85.0782 5.25719 86.2092 4.97217 87.3589 4.97217C88.5086 4.97217 89.6396 5.25719 90.646 5.80059C91.6042 6.34702 92.3887 7.1423 92.9125 8.09815C93.4708 9.12507 93.7527 10.274 93.7315 11.4367C93.752 12.5984 93.4702 13.7461 92.9125 14.7721C92.3891 15.7283 91.6045 16.5236 90.646 17.0697C89.6396 17.6131 88.5086 17.8981 87.3589 17.8981C86.2092 17.8981 85.0782 17.6131 84.0718 17.0697V17.065ZM89.4905 13.9623C90.0449 13.3325 90.3222 12.4885 90.3222 11.4305C90.3222 10.3725 90.0449 9.52903 89.4905 8.90021C89.232 8.59598 88.9063 8.35293 88.538 8.1893C88.1696 8.02567 87.7681 7.94571 87.3636 7.95543C86.9572 7.94617 86.5539 8.02642 86.1835 8.19024C85.8132 8.35406 85.4853 8.59724 85.2241 8.90176C84.6622 9.53161 84.3818 10.375 84.3829 11.432C84.384 12.489 84.6644 13.333 85.2241 13.9639C85.4851 14.2677 85.8125 14.5103 86.1823 14.6738C86.5521 14.8374 86.9547 14.9176 87.3605 14.9086C87.7655 14.9188 88.1676 14.8391 88.5365 14.6754C88.9055 14.5118 89.2316 14.2685 89.4905 13.9639V13.9623Z"
          fill="#777484"
          id="Vector_4"/>
    <path d="M107.677 5.15829V17.7073H104.482V16.2133C104.054 16.7434 103.508 17.1706 102.885 17.4621C102.257 17.7513 101.571 17.8987 100.877 17.8934C99.3515 17.8934 98.1426 17.4192 97.2506 16.4708C96.3586 15.5224 95.9126 14.1153 95.9126 12.2496V5.15829H99.2806V11.7128C99.2806 13.7337 100.065 14.7442 101.633 14.7442C102.002 14.7569 102.368 14.6869 102.705 14.5395C103.042 14.3921 103.34 14.1713 103.576 13.894C104.064 13.3262 104.309 12.4823 104.309 11.3622V5.15674L107.677 5.15829Z"
          fill="#777484"
          id="Vector_5"/>
    <path d="M121.352 6.37133C122.237 7.30215 122.679 8.68596 122.679 10.5228V17.7071H119.311V11.0828C119.311 10.0889 119.11 9.34633 118.708 8.85506C118.306 8.3638 117.724 8.1192 116.962 8.12127C116.115 8.12127 115.439 8.40465 114.933 8.97141C114.428 9.53818 114.176 10.3821 114.178 11.5032V17.7087H110.807V5.15816H114.022V6.6273C114.471 6.09759 115.041 5.67832 115.686 5.40328C116.373 5.11084 117.115 4.96386 117.865 4.972C119.305 4.972 120.467 5.43844 121.352 6.37133Z"
          fill="#777484"
          id="Vector_6"/>
    <path d="M137.681 0.400146V17.7071H134.464V16.2597C133.631 17.3488 132.423 17.8933 130.839 17.8933C129.786 17.9108 128.749 17.632 127.854 17.0902C126.958 16.5483 126.24 15.7663 125.787 14.8371C125.265 13.7773 125.006 12.6123 125.031 11.4365C125.004 10.2566 125.263 9.08714 125.787 8.02354C126.24 7.09441 126.958 6.31235 127.854 5.77051C128.749 5.22867 129.786 4.94988 130.839 4.96736C132.32 4.96736 133.478 5.47259 134.313 6.48304V0.400146H137.681ZM133.537 13.9637C134.097 13.3339 134.377 12.4899 134.378 11.4319C134.379 10.3739 134.099 9.53043 133.537 8.90161C133.272 8.60496 132.945 8.36719 132.578 8.20427C132.211 8.04135 131.813 7.95706 131.41 7.95706C131.007 7.95706 130.609 8.04135 130.242 8.20427C129.875 8.36719 129.548 8.60496 129.283 8.90161C128.722 9.53147 128.442 10.3749 128.442 11.4319C128.442 12.4889 128.722 13.3328 129.283 13.9637C129.548 14.2604 129.875 14.4981 130.242 14.6611C130.609 14.824 131.007 14.9083 131.41 14.9083C131.813 14.9083 132.211 14.824 132.578 14.6611C132.945 14.4981 133.272 14.2604 133.537 13.9637Z"
          fill="#777484"
          id="Vector_7"/>
    <path d="M75.2026 25.3896C75.901 25.7201 76.4837 26.2453 76.8771 26.8991C77.2627 27.611 77.4644 28.4043 77.4644 29.2099C77.4644 30.0154 77.2627 30.8087 76.8771 31.5206C76.487 32.177 75.9034 32.703 75.2026 33.0301C74.4008 33.3951 73.5235 33.574 72.6393 33.5529H70.4013V36.862H67.8301V24.8575H72.6393C73.5245 24.837 74.4023 25.0193 75.2026 25.3896ZM74.2582 30.748C74.6603 30.3881 74.8613 29.8767 74.8613 29.2137C74.8613 28.5508 74.6603 28.0337 74.2582 27.6624C73.8561 27.3004 73.2689 27.1199 72.4964 27.121H70.4013V31.2941H72.4964C73.2699 31.2941 73.8572 31.1121 74.2582 30.748Z"
          fill="#777484"
          id="Vector_8"/>
    <path d="M85.5273 28.5186C86.2373 29.1992 86.5917 30.2256 86.5907 31.5981V36.8619H84.2718V35.7138C83.8073 36.5702 82.9396 36.9989 81.6688 36.9999C81.0789 37.0137 80.4941 36.8904 79.9626 36.64C79.5008 36.421 79.1146 36.0748 78.8515 35.644C78.5938 35.2066 78.4621 34.7091 78.4706 34.2044C78.4706 33.347 78.7695 32.6721 79.3674 32.1798C79.9652 31.6875 80.8916 31.444 82.1465 31.4492H84.1131C84.1131 30.8658 83.9491 30.417 83.621 30.1026C83.293 29.7882 82.801 29.633 82.1449 29.6372C81.6874 29.6376 81.2335 29.7164 80.8038 29.8699C80.3969 30.0068 80.02 30.2173 79.6927 30.4904L78.8039 28.621C79.3058 28.2489 79.8734 27.9702 80.4784 27.7988C81.129 27.6039 81.8058 27.5056 82.4862 27.5071C83.8036 27.502 84.8172 27.8391 85.5273 28.5186ZM83.4163 34.8792C83.7526 34.6576 83.9996 34.3285 84.1147 33.9484V33.0005H82.4164C81.4006 33.0005 80.8927 33.3625 80.8927 34.0865C80.8857 34.2412 80.9159 34.3954 80.9806 34.5368C81.0454 34.6782 81.143 34.8029 81.2656 34.9009C81.5602 35.1155 81.9226 35.222 82.2894 35.2019C82.6895 35.2079 83.0822 35.096 83.4163 34.8808V34.8792Z"
          fill="#777484"
          id="Vector_9"/>
    <path d="M92.3922 27.8422C92.941 27.6029 93.5374 27.4858 94.1381 27.4993V29.9676C93.862 29.9458 93.6778 29.9334 93.5826 29.9334C92.8726 29.9334 92.3171 30.148 91.9161 30.5773C91.515 31.0065 91.314 31.6492 91.3129 32.5056V36.8618H88.8369V27.6359H91.2018V28.8537C91.491 28.4118 91.9043 28.0607 92.3922 27.8422Z"
          fill="#777484"
          id="Vector_10"/>
    <path d="M102.048 28.5186C102.759 29.1992 103.113 30.2256 103.112 31.5981V36.8619H100.795V35.7138C100.329 36.5702 99.4614 36.9989 98.1916 36.9999C97.6044 37.0125 97.0225 36.8892 96.4933 36.64C96.0315 36.421 95.6453 36.0748 95.3823 35.644C95.1245 35.2066 94.9929 34.7091 95.0014 34.2044C95.0014 33.347 95.3003 32.6721 95.8981 32.1798C96.496 31.6875 97.4197 31.444 98.6694 31.4492H100.637C100.637 30.8658 100.473 30.417 100.145 30.1026C99.8174 29.7882 99.3254 29.633 98.6694 29.6372C98.2118 29.6376 97.7579 29.7164 97.3282 29.8699C96.9213 30.0068 96.5444 30.2173 96.2172 30.4904L95.3283 28.621C95.8302 28.2489 96.3978 27.9702 97.0028 27.7988C97.6534 27.6039 98.3302 27.5056 99.0106 27.5071C100.328 27.502 101.341 27.8391 102.048 28.5186ZM99.9375 34.8792C100.274 34.6576 100.521 34.3285 100.636 33.9484V33.0005H98.9376C97.9218 33.0005 97.4139 33.3625 97.4139 34.0865C97.407 34.2412 97.4371 34.3954 97.5018 34.5368C97.5666 34.6782 97.6642 34.8029 97.7869 34.9009C98.0815 35.1155 98.4438 35.222 98.8106 35.2019C99.2113 35.2082 99.6046 35.0963 99.9391 34.8808L99.9375 34.8792Z"
          fill="#777484"
          id="Vector_11"/>
    <path d="M114.145 24.1377V36.8589H111.78V35.7931C111.166 36.5936 110.277 36.9938 109.113 36.9938C108.339 37.0065 107.577 36.8016 106.919 36.4033C106.261 36.0051 105.733 35.4303 105.399 34.7475C105.033 33.9611 104.844 33.1074 104.844 32.2436C104.844 31.3798 105.033 30.526 105.399 29.7397C105.732 29.0562 106.26 28.4809 106.918 28.0825C107.577 27.6842 108.339 27.4796 109.113 27.4933C110.202 27.4933 111.054 27.8646 111.669 28.6072V24.1377H114.145ZM111.096 34.1099C111.508 33.6475 111.715 33.027 111.715 32.2482C111.715 31.4694 111.508 30.8489 111.096 30.3866C110.901 30.1688 110.66 29.9943 110.391 29.8747C110.121 29.7552 109.828 29.6933 109.532 29.6933C109.236 29.6933 108.943 29.7552 108.674 29.8747C108.404 29.9943 108.164 30.1688 107.969 30.3866C107.556 30.851 107.35 31.4715 107.35 32.2482C107.35 33.0249 107.556 33.6455 107.969 34.1099C108.164 34.3281 108.404 34.503 108.674 34.6229C108.943 34.7427 109.236 34.8047 109.532 34.8047C109.828 34.8047 110.121 34.7427 110.391 34.6229C110.661 34.503 110.901 34.3281 111.096 34.1099Z"
          fill="#777484"
          id="Vector_12"/>
    <path d="M116.557 25.9218C116.339 25.7114 116.191 25.4419 116.132 25.1482C116.072 24.8545 116.104 24.5501 116.224 24.2746C116.344 23.999 116.546 23.765 116.803 23.6028C117.061 23.4407 117.362 23.3579 117.668 23.3651C117.872 23.3574 118.076 23.3899 118.267 23.4608C118.458 23.5317 118.632 23.6395 118.779 23.7778C118.919 23.911 119.03 24.0712 119.104 24.2482C119.177 24.4252 119.213 24.6153 119.208 24.8063C119.215 25.0093 119.18 25.2115 119.107 25.4013C119.033 25.5912 118.922 25.7649 118.779 25.9125C118.48 26.1915 118.083 26.348 117.67 26.3497C117.257 26.3515 116.858 26.1983 116.557 25.9218ZM116.43 27.6283H118.906V36.8542H116.43V27.6283Z"
          fill="#777484"
          id="Vector_13"/>
    <path d="M122.001 36.7239C121.424 36.5807 120.876 36.3403 120.382 36.0134L121.208 34.0913C121.631 34.3747 122.097 34.5919 122.589 34.7351C123.101 34.8967 123.637 34.9804 124.176 34.9833C125.223 34.9833 125.747 34.7035 125.747 34.144C125.748 34.017 125.707 33.8931 125.629 33.791C125.552 33.6889 125.443 33.6141 125.318 33.5778C124.892 33.4311 124.45 33.3332 124.001 33.2861C123.415 33.1972 122.837 33.0655 122.271 32.8921C121.811 32.7394 121.402 32.4663 121.089 32.1024C120.755 31.7249 120.589 31.1876 120.589 30.4906C120.581 29.938 120.747 29.3965 121.065 28.9392C121.405 28.465 121.879 28.0983 122.43 27.8843C123.102 27.6189 123.824 27.4907 124.549 27.5073C125.156 27.5078 125.761 27.5797 126.35 27.7214C126.875 27.835 127.377 28.0349 127.834 28.3124L127.001 30.2082C126.264 29.7551 125.411 29.5172 124.541 29.5225C124.012 29.5225 123.615 29.6027 123.35 29.763C123.233 29.8214 123.134 29.91 123.064 30.0193C122.994 30.1287 122.956 30.2546 122.954 30.3835C122.949 30.5155 122.988 30.6455 123.065 30.7538C123.142 30.8621 123.254 30.9429 123.382 30.9839C123.825 31.1362 124.282 31.2453 124.747 31.3097C125.327 31.4069 125.899 31.5411 126.461 31.7115C126.914 31.8599 127.315 32.1285 127.62 32.4872C127.947 32.8657 128.111 33.3916 128.112 34.0649C128.121 34.6099 127.954 35.1438 127.636 35.5914C127.286 36.0624 126.804 36.4232 126.247 36.6293C125.556 36.8893 124.82 37.0147 124.08 36.9985C123.378 37.0024 122.678 36.91 122.001 36.7239Z"
          fill="#777484"
          id="Vector_14"/>
    <path d="M137.953 33.0005H131.493C131.586 33.5365 131.88 34.0194 132.318 34.3549C132.783 34.6974 133.355 34.8732 133.937 34.8528C134.342 34.8601 134.744 34.7873 135.119 34.6388C135.481 34.4796 135.806 34.2488 136.072 33.9608L137.389 35.5122C136.584 36.5061 135.409 37.0035 133.866 37.0046C132.974 37.022 132.093 36.8119 131.31 36.3949C130.587 36.0042 129.995 35.4182 129.604 34.707C129.193 33.9534 128.985 33.1098 129.001 32.2559C128.988 31.4052 129.192 30.5647 129.596 29.8109C129.97 29.1085 130.536 28.5211 131.231 28.1137C131.928 27.7199 132.719 27.5103 133.525 27.5057C134.33 27.5011 135.123 27.7015 135.826 28.0874C136.51 28.4847 137.063 29.065 137.421 29.7597C137.821 30.5449 138.019 31.4132 138 32.29C138 32.3179 137.984 32.5584 137.953 33.0005ZM132.159 30.0343C131.763 30.4068 131.515 30.9051 131.461 31.4398H135.667C135.608 30.9091 135.361 30.4153 134.969 30.0436C134.592 29.6965 134.09 29.5086 133.572 29.5208C133.05 29.5069 132.544 29.6922 132.159 30.0374V30.0343Z"
          fill="#777484"
          id="Vector_15"/>
  </g>
  <defs>
    <clipPath id="clip0_564_9048">
      <rect fill="white" height="37" width="138"/>
    </clipPath>
  </defs>
</svg>
