<svg fill="none" height="24" viewBox="0 0 36 24" width="36" xmlns="http://www.w3.org/2000/svg">
  <g id="icon/ic_payment_mastercard">
    <rect fill="#F26122" height="16.68" id="Rectangle" width="10.21" x="12.5684" y="3.27051"/>
    <path
      d="M13.6687 11.6102C13.6518 8.3637 15.1264 5.28922 17.6687 3.27017C13.3189 -0.15054 7.07064 0.346185 3.31599 4.41117C-0.438663 8.47616 -0.438663 14.7442 3.31599 18.8092C7.07064 22.8741 13.3189 23.3709 17.6687 19.9502C15.1264 17.9311 13.6518 14.8566 13.6687 11.6102Z"
      fill="#EA1D25"
      id="Path"/>
    <path
      d="M34.8289 11.6101C34.8263 15.6694 32.5078 19.3715 28.8568 21.1459C25.2058 22.9203 20.8624 22.4561 17.6689 19.9501C22.269 16.328 23.0656 9.66439 19.4489 5.06009C18.9305 4.39336 18.3328 3.79227 17.6689 3.27009C20.8624 0.764088 25.2058 0.299837 28.8568 2.07427C32.5078 3.8487 34.8263 7.55075 34.8289 11.6101V11.6101Z"
      fill="#F69E1E"
      id="Path_2"/>
  </g>
</svg>
