<svg width="24" height="25" viewBox="0 0 24 25" fill="none" xmlns="http://www.w3.org/2000/svg">
<g id="fi-rr-menu-burger" clip-path="url(#clip0_638_6218)">
<path id="Vector" d="M23 11.4998H1C0.447715 11.4998 0 11.9475 0 12.4998C0 13.052 0.447715 13.4998 1 13.4998H23C23.5523 13.4998 24 13.052 24 12.4998C24 11.9475 23.5523 11.4998 23 11.4998Z" fill="#19181B"/>
<path id="Vector_2" d="M23 4.50024H1C0.447715 4.50024 0 4.94796 0 5.50024C0 6.05253 0.447715 6.50024 1 6.50024H23C23.5523 6.50024 24 6.05253 24 5.50024C24 4.94796 23.5523 4.50024 23 4.50024Z" fill="#19181B"/>
<path id="Vector_3" d="M23 18.5H1C0.447715 18.5 0 18.9477 0 19.5C0 20.0523 0.447715 20.5 1 20.5H23C23.5523 20.5 24 20.0523 24 19.5C24 18.9477 23.5523 18.5 23 18.5Z" fill="#19181B"/>
</g>
<defs>
<clipPath id="clip0_638_6218">
<rect width="24" height="24" fill="white" transform="translate(0 0.5)"/>
</clipPath>
</defs>
</svg>
