<svg fill="none" height="20" viewBox="0 0 20 20" width="20" xmlns="http://www.w3.org/2000/svg">
  <path
    d="M10 7.51655e-08C8.95656 -8.3411e-05 7.93642 0.308534 7.068 0.887C6.41876 1.3176 5.87349 1.88729 5.47173 2.55477C5.06997 3.22224 4.8218 3.97076 4.74521 4.74605C4.66862 5.52133 4.76553 6.30394 5.02892 7.03713C5.2923 7.77031 5.71556 8.43569 6.268 8.985C7.00697 9.72189 7.94763 10.2234 8.97131 10.4263C9.995 10.6292 11.0558 10.5243 12.02 10.125C12.9835 9.72716 13.8075 9.05278 14.388 8.187C15.066 7.1751 15.3713 5.95902 15.2517 4.74686C15.132 3.53469 14.5948 2.40179 13.732 1.542C12.7411 0.554287 11.3991 -0.000235716 10 7.51655e-08ZM10 8.421C9.37436 8.42064 8.7628 8.23533 8.24218 7.88837C7.72157 7.54142 7.31514 7.04829 7.074 6.471C6.83455 5.8941 6.77201 5.25904 6.89434 4.64652C7.01666 4.034 7.31833 3.47167 7.761 3.031C8.20404 2.59012 8.76753 2.29005 9.38063 2.16852C9.99372 2.04698 10.6291 2.1094 11.2068 2.34792C11.7845 2.58645 12.2788 2.99044 12.6276 3.50911C12.9764 4.02778 13.164 4.63798 13.167 5.263C13.167 6.101 12.833 6.903 12.239 7.496C11.645 8.088 10.839 8.421 10 8.421ZM19.5 20V18.947C19.4998 17.9789 19.3085 17.0204 18.9372 16.1264C18.5658 15.2323 18.0217 14.4204 17.336 13.737C15.9486 12.3545 14.0696 11.5785 12.111 11.579H7.89C5.93138 11.5785 4.05245 12.3545 2.665 13.737C1.97911 14.4203 1.43482 15.2322 1.0633 16.1262C0.691788 17.0203 0.500364 17.9788 0.5 18.947V20H2.611V18.947C2.611 17.552 3.167 16.213 4.157 15.226C5.14786 14.2383 6.48994 13.6838 7.889 13.684H12.111C13.511 13.684 14.853 14.239 15.843 15.226C16.3328 15.7141 16.7214 16.294 16.9867 16.9325C17.252 17.571 17.3887 18.2556 17.389 18.947V20H19.5Z"
    fill="#7D7788"/>
</svg>
