<svg fill="none" height="16" viewBox="0 0 16 16" width="16" xmlns="http://www.w3.org/2000/svg">
  <path
    d="M14.8445 14.4505L11.1119 10.718C12.1291 9.47395 12.6292 7.88658 12.5088 6.28418C12.3884 4.68178 11.6567 3.18695 10.4651 2.10889C9.27347 1.03083 7.71307 0.452028 6.10665 0.492193C4.50024 0.532359 2.97071 1.18842 1.83445 2.32469C0.698189 3.46095 0.0421243 4.99047 0.00195887 6.59689C-0.0382065 8.2033 0.540601 9.7637 1.61866 10.9553C2.69672 12.147 4.19154 12.8786 5.79394 12.999C7.39634 13.1194 8.98372 12.6193 10.2277 11.6022L13.9603 15.3347C14.0782 15.4486 14.2362 15.5116 14.4001 15.5102C14.5641 15.5088 14.7209 15.443 14.8368 15.3271C14.9528 15.2111 15.0186 15.0543 15.02 14.8903C15.0214 14.7264 14.9584 14.5684 14.8445 14.4505ZM6.27321 11.766C5.2838 11.766 4.31661 11.4726 3.49394 10.9229C2.67127 10.3732 2.03008 9.59194 1.65145 8.67784C1.27282 7.76374 1.17375 6.7579 1.36678 5.7875C1.5598 4.81709 2.03625 3.92572 2.73587 3.2261C3.43549 2.52648 4.32686 2.05004 5.29726 1.85701C6.26766 1.66399 7.27351 1.76305 8.18761 2.14169C9.1017 2.52032 9.883 3.16151 10.4327 3.98417C10.9824 4.80684 11.2758 5.77403 11.2758 6.76344C11.2743 8.08975 10.7467 9.3613 9.80891 10.2991C8.87107 11.237 7.59951 11.7645 6.27321 11.766Z"
    fill="#7D7788"/>
</svg>
