<svg fill="none" height="24" viewBox="0 0 24 24" width="24" xmlns="http://www.w3.org/2000/svg">
  <g clip-path="url(#clip0_227_16643)" id="fi-rr-indent">
    <path
      d="M1 6H23C23.2652 6 23.5196 5.89464 23.7071 5.7071C23.8946 5.51957 24 5.26521 24 5C24 4.73478 23.8946 4.48043 23.7071 4.29289C23.5196 4.10536 23.2652 4 23 4H1C0.734784 4 0.48043 4.10536 0.292893 4.29289C0.105357 4.48043 0 4.73478 0 5C0 5.26521 0.105357 5.51957 0.292893 5.7071C0.48043 5.89464 0.734784 6 1 6V6Z"
      fill="#7D7788"
      id="Vector"/>
    <path
      d="M23 9H9C8.73478 9 8.48043 9.10536 8.29289 9.29289C8.10536 9.48043 8 9.73478 8 10C8 10.2652 8.10536 10.5196 8.29289 10.7071C8.48043 10.8946 8.73478 11 9 11H23C23.2652 11 23.5196 10.8946 23.7071 10.7071C23.8946 10.5196 24 10.2652 24 10C24 9.73478 23.8946 9.48043 23.7071 9.29289C23.5196 9.10536 23.2652 9 23 9Z"
      fill="#7D7788"
      id="Vector_2"/>
    <path
      d="M23 19H1C0.734784 19 0.48043 19.1054 0.292893 19.2929C0.105357 19.4804 0 19.7348 0 20C0 20.2652 0.105357 20.5196 0.292893 20.7071C0.48043 20.8947 0.734784 21 1 21H23C23.2652 21 23.5196 20.8947 23.7071 20.7071C23.8946 20.5196 24 20.2652 24 20C24 19.7348 23.8946 19.4804 23.7071 19.2929C23.5196 19.1054 23.2652 19 23 19Z"
      fill="#7D7788"
      id="Vector_3"/>
    <path
      d="M23 14H9C8.73478 14 8.48043 14.1054 8.29289 14.2929C8.10536 14.4804 8 14.7348 8 15C8 15.2652 8.10536 15.5196 8.29289 15.7071C8.48043 15.8947 8.73478 16 9 16H23C23.2652 16 23.5196 15.8947 23.7071 15.7071C23.8946 15.5196 24 15.2652 24 15C24 14.7348 23.8946 14.4804 23.7071 14.2929C23.5196 14.1054 23.2652 14 23 14Z"
      fill="#7D7788"
      id="Vector_4"/>
    <path
      d="M1.707 16.2447L4.681 13.2707C4.88508 13.066 4.99968 12.7887 4.99968 12.4997C4.99968 12.2107 4.88508 11.9334 4.681 11.7287L1.707 8.7547C1.56709 8.61483 1.38883 8.5196 1.19479 8.48107C1.00074 8.44253 0.799624 8.46242 0.616884 8.53821C0.434143 8.61401 0.27799 8.7423 0.168182 8.90687C0.0583736 9.07143 -0.00015534 9.26487 3.09641e-07 9.4627V15.5367C-0.00015534 15.7345 0.0583736 15.928 0.168182 16.0925C0.27799 16.2571 0.434143 16.3854 0.616884 16.4612C0.799624 16.537 1.00074 16.5569 1.19479 16.5183C1.38883 16.4798 1.56709 16.3846 1.707 16.2447V16.2447Z"
      fill="#7D7788"
      id="Vector_5"/>
  </g>
  <defs>
    <clipPath id="clip0_227_16643">
      <rect fill="white" height="24" width="24"/>
    </clipPath>
  </defs>
</svg>
