<svg fill="none" height="20" viewBox="0 0 20 20" width="20" xmlns="http://www.w3.org/2000/svg">
  <g clip-path="url(#clip0_227_41879)">
    <path
      d="M17.5003 3.33333H14.917C14.7236 2.39284 14.2118 1.54779 13.468 0.940598C12.7242 0.333408 11.7938 0.0012121 10.8337 0L9.16699 0C8.20682 0.0012121 7.27642 0.333408 6.53262 0.940598C5.78881 1.54779 5.27707 2.39284 5.08366 3.33333H2.50033C2.27931 3.33333 2.06735 3.42113 1.91107 3.57741C1.75479 3.73369 1.66699 3.94565 1.66699 4.16667C1.66699 4.38768 1.75479 4.59964 1.91107 4.75592C2.06735 4.9122 2.27931 5 2.50033 5H3.33366V15.8333C3.33498 16.938 3.77439 17.997 4.55551 18.7782C5.33662 19.5593 6.39566 19.9987 7.50032 20H12.5003C13.605 19.9987 14.664 19.5593 15.4451 18.7782C16.2263 17.997 16.6657 16.938 16.667 15.8333V5H17.5003C17.7213 5 17.9333 4.9122 18.0896 4.75592C18.2459 4.59964 18.3337 4.38768 18.3337 4.16667C18.3337 3.94565 18.2459 3.73369 18.0896 3.57741C17.9333 3.42113 17.7213 3.33333 17.5003 3.33333V3.33333ZM9.16699 1.66667H10.8337C11.3506 1.6673 11.8546 1.82781 12.2767 2.1262C12.6987 2.42459 13.0182 2.84624 13.1912 3.33333H6.80949C6.98248 2.84624 7.30191 2.42459 7.72398 2.1262C8.14605 1.82781 8.6501 1.6673 9.16699 1.66667V1.66667ZM15.0003 15.8333C15.0003 16.4964 14.7369 17.1323 14.2681 17.6011C13.7992 18.0699 13.1634 18.3333 12.5003 18.3333H7.50032C6.83728 18.3333 6.2014 18.0699 5.73256 17.6011C5.26372 17.1323 5.00032 16.4964 5.00032 15.8333V5H15.0003V15.8333Z"
      fill="#7D7788"/>
    <path
      d="M8.33333 14.9997C8.55435 14.9997 8.76631 14.9119 8.92259 14.7556C9.07887 14.5993 9.16666 14.3873 9.16666 14.1663V9.16634C9.16666 8.94533 9.07887 8.73337 8.92259 8.57709C8.76631 8.42081 8.55435 8.33301 8.33333 8.33301C8.11232 8.33301 7.90036 8.42081 7.74408 8.57709C7.5878 8.73337 7.5 8.94533 7.5 9.16634V14.1663C7.5 14.3873 7.5878 14.5993 7.74408 14.7556C7.90036 14.9119 8.11232 14.9997 8.33333 14.9997Z"
      fill="#7D7788"/>
    <path
      d="M11.6663 14.9997C11.8874 14.9997 12.0993 14.9119 12.2556 14.7556C12.4119 14.5993 12.4997 14.3873 12.4997 14.1663V9.16634C12.4997 8.94533 12.4119 8.73337 12.2556 8.57709C12.0993 8.42081 11.8874 8.33301 11.6663 8.33301C11.4453 8.33301 11.2334 8.42081 11.0771 8.57709C10.9208 8.73337 10.833 8.94533 10.833 9.16634V14.1663C10.833 14.3873 10.9208 14.5993 11.0771 14.7556C11.2334 14.9119 11.4453 14.9997 11.6663 14.9997Z"
      fill="#7D7788"/>
  </g>
  <defs>
    <clipPath id="clip0_227_41879">
      <rect fill="white" height="20" width="20"/>
    </clipPath>
  </defs>
</svg>
