<svg fill="none" height="14" viewBox="0 0 20 14" width="20" xmlns="http://www.w3.org/2000/svg">
  <mask height="15" id="mask0_230_4149" maskUnits="userSpaceOnUse" style="mask-type:luminance" width="20" x="0" y="0">
    <path d="M0 0H20V14.001H0V0Z" fill="white"/>
  </mask>
  <g mask="url(#mask0_230_4149)">
    <path
      d="M19.584 2.18616C19.4696 1.76245 19.246 1.37617 18.9356 1.06592C18.6252 0.755673 18.2388 0.532315 17.815 0.418164C16.255 -0.00683576 10 -0.00683594 10 -0.00683594C10 -0.00683594 3.744 -0.00683579 2.186 0.412164C1.7615 0.526619 1.37462 0.750824 1.06427 1.06223C0.753909 1.37364 0.531016 1.76128 0.418 2.18616C-2.98023e-08 3.74616 0 7.00016 0 7.00016C0 7.00016 -2.98023e-08 10.2552 0.418 11.8142C0.532027 12.2379 0.75536 12.6242 1.06564 12.9345C1.37592 13.2448 1.76227 13.4681 2.186 13.5822C3.746 14.0012 10 14.0012 10 14.0012C10 14.0012 16.256 14.0012 17.815 13.5822C18.2386 13.468 18.6249 13.2446 18.9351 12.9343C19.2454 12.624 19.4688 12.2378 19.583 11.8142C20 10.2552 20 7.00016 20 7.00016C20 7.00016 19.995 3.74516 19.584 2.18616Z"
      fill="#FF0000"/>
    <path d="M8 10L13.197 7L8 4V10Z" fill="white"/>
  </g>
</svg>
